<svg xmlns="http://www.w3.org/2000/svg" version="1.0" viewBox="0 0 150 75">
<g fill="#fbfaf9">
  <path d="M28.97 33.939c-1.036-1.285-2.454-2.102-4.173-2.485.192-.214.356-.433.52-.625 1.742-2.343 4.25-6.734 1.523-10.004-1.796-2.183-5.476-3.109-9.187-2.566 0-.05.027-.078.027-.133a.518.518 0 0 0-.433-.601c-.274-.055-.547.136-.602.437l-.082.488a14.685 14.685 0 0 0-3.105 1.09c-4.473 2.184-6.407 6.22-5.344 11.098a.507.507 0 0 0 .625.383.536.536 0 0 0 .41-.63c-.98-4.331.762-7.96 4.77-9.921a12.953 12.953 0 0 1 2.425-.875A1645.6 1645.6 0 0 1 14.11 30.72c-.383 1.91-.734 3.68-1.09 5.344a6.42 6.42 0 0 0-.789 1.851c-.137.52.055.82.215.985-4.113 20.582-3.899 21.59-3.024 21.863a.474.474 0 0 0 .192.027c.515 0 .898-.68 1.469-2.07a.523.523 0 0 0-.297-.684c-.274-.109-.575 0-.684.274-.027.11-.082.191-.11.273.302-3.3 1.91-11.558 3.493-19.465 2.289-.273 7.387-3.546 10.496-6.734 1.742.219 3.16.953 4.168 2.207 1.883 2.344 2.047 6.133.41 9.867-2.508 5.754-8.234 9.489-15.348 10.008a.525.525 0 0 0-.492.57.533.533 0 0 0 .52.493h.055C20.79 54.982 26.868 51 29.54 44.869c1.773-4.09 1.554-8.29-.57-10.93ZM13.7 38.025c.11-.543.219-1.063.328-1.606 1.39-2.183 4.008-3.41 6.324-3.87a16.945 16.945 0 0 1 2.238-.247c-3.109 2.969-7.28 5.29-8.89 5.723Zm9.87-6.73c-1.062-.083-2.206 0-3.433.241-2.293.438-4.254 1.418-5.699 2.782.246-1.172.492-2.317.707-3.38.957-4.663 1.774-8.78 2.32-11.585 3.434-.574 6.95.187 8.559 2.125 1.691 2.043 1.117 5.125-1.555 8.722-.273.356-.57.739-.898 1.094Zm21.561 7.632c-.273-.137-.601-.027-.71.246-3.133 6.594-6.106 9.977-6.758 9.867-.055-.027-1.012-.953 2.07-10.414.082-.246.273-.816-.164-1.117-.41-.328-.871-.027-1.637.488-.816.52-1.934 1.254-2.805 1.149 2.778-4.801 2.508-5.863 1.88-6.274-.981-.57-2.4 1.09-3.055 2.047-1.336 2.07-1.309 3.953.109 4.907 1.445 1.007 3.328-.22 4.445-.954l.055-.054c-1.063 3.351-1.746 5.996-1.992 7.824-.297 2.016-.082 3.078.683 3.379.137.027.246.054.383.054 2.18 0 5.969-6.707 7.742-10.44.11-.274 0-.599-.246-.708Zm-11.015-1.883c.382-1.472 1.664-2.836 2.238-3.16-.055.434-.356 1.66-2.102 4.688-.191-.301-.328-.762-.136-1.528Zm0 0"/>
  <path d="M55.433 39.036c-.246-.109-.57 0-.68.243-2.074 4.226-3.625 5.562-4.363 5.425-.3-.054-1.281-.625-1.527-5.398a.501.501 0 0 0-.352-.461c-.219-.055-.465 0-.574.191a6.303 6.303 0 0 0-.492.653c-.68.926-1.578 2.18-2.672 3.355a1.93 1.93 0 0 1-.38.352c-.19-.953.817-4.606 2.427-5.75.465-.328 1.09-.574 1.933.406.192.219.52.246.739.055.218-.164.246-.516.082-.735-1.036-1.199-2.02-1.172-2.672-.953-2.102.735-3.52 4.77-3.57 6.625-.028.762.187 1.254.624 1.414.684.274 1.364-.46 1.582-.707a30.611 30.611 0 0 0 2.372-2.945c.3 3.11 1.035 4.664 2.261 4.937.11 0 .219.024.328.024 1.856 0 3.844-3.242 5.18-6.024.137-.273.027-.57-.246-.707Zm0 0"/>
  <path d="M65.819 22.322c-.191-.164-.438-.215-.68-.164-1.172.382-3.273 6.082-5.289 15.46-.054.165-.136.297-.219.461-.136-1.062-.847-1.363-1.09-1.445-1.171-.351-3.027.711-4.308 3.438-.98 2.043-1.172 4.714.055 5.425.597.352 1.636.297 3.136-1.882a54.552 54.552 0 0 0 1.77-2.7c-.3 1.555-.598 3.192-.871 4.907-.52 3.054-.899 5.617-1.117 7.472-.438 3.625-.22 4.117.324 4.278.055.027.137.027.191.027.493 0 .82-.625.985-1.035a.487.487 0 0 0-.246-.68.495.495 0 0 0-.438-.027c.055-1.172.328-3.844 1.336-9.844a185.229 185.229 0 0 1 1.5-8.016c2.043-3.87 3.082-7.14 3.926-9.73.11-.328.219-.629.3-.899 1.446-4.335.899-4.855.735-5.046Zm-9.27 20.695c-1.035 1.496-1.609 1.633-1.742 1.578-.41-.242-.547-2.125.38-4.09.929-1.96 2.183-2.887 2.862-2.887.082 0 .137 0 .192.028.437.11.355.898.328 1.117a.533.533 0 0 0 .352.57 49.925 49.925 0 0 1-2.372 3.684ZM64.1 27.04a7.57 7.57 0 0 0-.297.899c-.492 1.472-1.039 3.136-1.773 5.015 1.144-4.523 2.18-7.359 2.836-8.777-.11.652-.356 1.582-.766 2.863Zm29.47 6.899c-1.035-1.285-2.453-2.102-4.171-2.485.19-.214.355-.433.52-.625 1.741-2.343 4.25-6.734 1.523-10.004-1.797-2.183-5.477-3.109-9.188-2.566 0-.05.027-.078.027-.133a.518.518 0 0 0-.433-.601c-.274-.055-.547.136-.602.437l-.082.488a14.685 14.685 0 0 0-3.105 1.09c-4.473 2.184-6.407 6.22-5.344 11.098a.507.507 0 0 0 .625.383.536.536 0 0 0 .41-.63c-.98-4.331.762-7.96 4.77-9.921a12.953 12.953 0 0 1 2.425-.875 1645.6 1645.6 0 0 1-2.234 11.125c-.383 1.91-.734 3.68-1.09 5.344a6.42 6.42 0 0 0-.789 1.851c-.137.52.055.82.215.985-4.113 20.582-3.898 21.59-3.023 21.863.054.027.136.027.19.027.517 0 .9-.68 1.47-2.07a.523.523 0 0 0-.297-.684c-.274-.109-.574 0-.684.274-.027.11-.082.191-.11.273.302-3.3 1.911-11.558 3.493-19.465 2.29-.273 7.387-3.546 10.496-6.734 1.742.219 3.16.953 4.168 2.207 1.883 2.344 2.047 6.133.41 9.867-2.508 5.754-8.234 9.489-15.347 10.008a.525.525 0 0 0-.493.57.533.533 0 0 0 .52.493h.055C85.39 54.982 91.469 51 94.14 44.869c1.773-4.09 1.554-8.29-.57-10.93ZM78.3 38.025c.11-.543.22-1.063.329-1.606 1.39-2.183 4.008-3.41 6.324-3.87a16.945 16.945 0 0 1 2.239-.247c-3.11 2.969-7.282 5.29-8.891 5.723Zm9.872-6.73c-1.063-.083-2.207 0-3.434.241-2.293.438-4.254 1.418-5.699 2.782.246-1.172.492-2.317.707-3.38.957-4.663 1.774-8.78 2.32-11.585 3.434-.574 6.95.187 8.56 2.125 1.69 2.043 1.116 5.125-1.556 8.722-.273.356-.57.739-.898 1.094Zm19.458 7.878a.518.518 0 0 0-.734.078c-1.144 1.473-3.027 2.7-4.472 2.43.027-.191.055-.383.055-.574.19-3.082-.762-3.707-1.336-3.817-.653-.136-1.336.356-1.66 1.172a.428.428 0 0 0-.438.055c-1.09.68-1.988 2.426-1.5 4.308.328 1.118 1.09 1.825 2.101 1.825.954 0 1.961-.707 2.48-1.961 1.907.41 4.196-1.008 5.587-2.781a.514.514 0 0 0-.082-.735Zm-7.956 4.442h-.028c-.683-.028-.984-.68-1.066-1.063-.27-.926-.055-2.207.711-2.918.055.926.57 1.938 1.879 2.645-.379.87-1.035 1.336-1.496 1.336Zm1.77-2.563c-.028.055-.028.11-.028.164-1.035-.683-1.2-1.555-1.008-2.234.137-.438.41-.657.547-.657.133.028.598.547.488 2.727Zm0 0"/>
  <path d="M118.127 22.322c-.192-.164-.438-.215-.68-.164-1.172.382-3.273 6.082-5.289 15.46-.055.165-.137.297-.219.461-.136-1.062-.847-1.363-1.09-1.445-1.171-.351-3.027.711-4.308 3.438-.98 2.043-1.172 4.714.055 5.425.597.352 1.636.297 3.136-1.882a54.552 54.552 0 0 0 1.77-2.7 149.018 149.018 0 0 0-.871 4.907c-.52 3.054-.899 5.617-1.117 7.472-.438 3.625-.22 4.117.324 4.278a.467.467 0 0 0 .191.027c.492 0 .82-.625.985-1.035a.487.487 0 0 0-.247-.68.495.495 0 0 0-.437-.027c.055-1.172.328-3.844 1.336-9.844a185.229 185.229 0 0 1 1.5-8.016c2.043-3.87 3.082-7.14 3.926-9.73.109-.328.218-.629.3-.899 1.446-4.335.899-4.855.735-5.046Zm-9.27 20.695c-1.035 1.496-1.61 1.633-1.742 1.578-.41-.242-.547-2.125.379-4.09.93-1.96 2.184-2.887 2.863-2.887.082 0 .137 0 .192.028.437.11.355.898.328 1.117a.533.533 0 0 0 .351.57 49.925 49.925 0 0 1-2.37 3.684Zm7.551-15.977a7.57 7.57 0 0 0-.297.899c-.492 1.472-1.039 3.136-1.773 5.015 1.144-4.523 2.18-7.359 2.836-8.777-.11.652-.356 1.582-.766 2.863Zm6.571 11.86c-.246-.164-.547-.082-.711.164-1.824 2.941-4.879 5.722-5.805 5.344-.11-.055-.98-.575.219-5.184a.56.56 0 0 0-.383-.652c-.3-.055-.574.109-.652.382-.985 3.844-.848 5.887.379 6.407.191.082.383.109.574.109 2.043 0 5.18-3.656 6.57-5.863a.524.524 0 0 0-.191-.707Zm-6.434-2.211c1.39.082 1.364-1.66.246-1.281-.574.164-1.308 1.226-.246 1.28Zm0 0"/>
  <path d="M132.875 39.01a.516.516 0 0 0-.71.214c-.653 1.121-2.372 4.144-3.352 4.035-.192-.027-.739-.297-1.282-2.207-.382-1.336-.902-2.59-1.91-2.644-.734-.055-1.555.52-2.808 2.863.328-1.172.683-2.344.957-3.301.109-.352.187-.652.27-.953a.532.532 0 0 0-.352-.652.53.53 0 0 0-.657.378c-.082.274-.164.602-.273.93-.707 2.426-1.77 6.106-2.043 8.34a.508.508 0 0 0 .383.547c.054.027.082.027.136.027a.539.539 0 0 0 .489-.328c2.562-6.379 3.597-6.816 3.843-6.816.055 0 .438.11.954 1.91.546 1.879 1.257 2.836 2.183 2.945 1.39.16 2.645-1.555 4.36-4.555.164-.273.054-.57-.188-.734Zm0 0"/>
  <path d="M140.86 39.01a.522.522 0 0 0-.734.136c-2.047 2.86-3.711 4.66-5.344 5.832-.82.574-1.61.683-2.129.3-.328-.245-1.336-1.335-.164-5.152 2.644-2.183 4.09-4.254 3.71-5.343a.896.896 0 0 0-.82-.547c-1.09.027-2.753 1.91-3.843 5.425-1.336 4.336-.246 5.918.52 6.461.378.301.816.438 1.308.438.625 0 1.336-.246 2.016-.738 1.746-1.254 3.464-3.106 5.59-6.079a.543.543 0 0 0-.11-.734Zm-5.7-3.63c-.109.438-.57 1.309-1.85 2.617.706-1.578 1.472-2.343 1.85-2.617Zm0 0"/>
</g>
</svg>